ffmpeg version 4.3.1 Copyright (c) 2000-2020 the FFmpeg developers
  built with Apple clang version 11.0.3 (clang-1103.0.32.62)
  configuration: --prefix=/usr/local/Cellar/ffmpeg/4.3.1 --enable-shared --enable-pthreads --enable-version3 --enable-avresample --cc=clang --host-cflags= --host-ldflags= --enable-ffplay --enable-gnutls --enable-gpl --enable-libaom --enable-libbluray --enable-libdav1d --enable-libmp3lame --enable-libopus --enable-librav1e --enable-librubberband --enable-libsnappy --enable-libsrt --enable-libtesseract --enable-libtheora --enable-libvidstab --enable-libvorbis --enable-libvpx --enable-libwebp --enable-libx264 --enable-libx265 --enable-libxml2 --enable-libxvid --enable-lzma --enable-libfontconfig --enable-libfreetype --enable-frei0r --enable-libass --enable-libopencore-amrnb --enable-libopencore-amrwb --enable-libopenjpeg --enable-librtmp --enable-libspeex --enable-libsoxr --enable-videotoolbox --disable-libjack --disable-indev=jack
  libavutil      56. 51.100 / 56. 51.100
  libavcodec     58. 91.100 / 58. 91.100
  libavformat    58. 45.100 / 58. 45.100
  libavdevice    58. 10.100 / 58. 10.100
  libavfilter     7. 85.100 /  7. 85.100
  libavresample   4.  0.  0 /  4.  0.  0
  libswscale      5.  7.100 /  5.  7.100
  libswresample   3.  7.100 /  3.  7.100
  libpostproc    55.  7.100 / 55.  7.100
Input #0, flv, from '/Users/cmacdonald/Documents/videos/Liquid_original.flv':
  Metadata:
    starttime       : 0
    totalduration   : 115
    totaldatarate   : 783
    bytelength      : 11293827
    canseekontime   : true
    sourcedata      : B4A7DD465HH1311617348829683
    purl            : 
    pmsg            : 
    httphostheader  : v5.cache4.c.youtube.com
  Duration: 00:01:54.87, start: 0.000000, bitrate: 786 kb/s
    Stream #0:0: Video: h264 (Main), yuv420p(progressive), 640x360 [SAR 1:1 DAR 16:9], 686 kb/s, 23.98 fps, 23.98 tbr, 1k tbn, 47.95 tbc
    Stream #0:1: Audio: aac (LC), 44100 Hz, stereo, fltp, 109 kb/s
Stream mapping:
  Stream #0:0 -> #0:0 (h264 (native) -> h264 (libx264))
  Stream #0:1 -> #0:1 (aac (native) -> aac (native))
Press [q] to stop, [?] for help
frame=    0 fps=0.0 q=0.0 size=       0kB time=-577014:32:22.77 bitrate=  -0.0kbits/s speed=N/A    [Parsed_drawtext_0 @ 0x7fc8454b9100] Using "/System/Library/Fonts/Supplemental/Verdana.ttf"
[libx264 @ 0x7fc848808e00] using SAR=1/1
[libx264 @ 0x7fc848808e00] using cpu capabilities: MMX2 SSE2Fast SSSE3 SSE4.2 AVX FMA3 BMI2 AVX2
[libx264 @ 0x7fc848808e00] profile Constrained Baseline, level 3.0, 4:2:0, 8-bit
[libx264 @ 0x7fc848808e00] 264 - core 160 r3011 cde9a93 - H.264/MPEG-4 AVC codec - Copyleft 2003-2020 - http://www.videolan.org/x264.html - options: cabac=0 ref=3 deblock=1:0:0 analyse=0x1:0x111 me=hex subme=7 psy=1 psy_rd=1.00:0.00 mixed_ref=1 me_range=16 chroma_me=1 trellis=1 8x8dct=0 cqm=0 deadzone=21,11 fast_pskip=1 chroma_qp_offset=-2 threads=11 lookahead_threads=1 sliced_threads=0 nr=0 decimate=1 interlaced=0 bluray_compat=0 constrained_intra=0 bframes=0 weightp=0 keyint=60 keyint_min=6 scenecut=40 intra_refresh=0 rc_lookahead=40 rc=abr mbtree=1 bitrate=950 ratetol=1.0 qcomp=0.60 qpmin=0 qpmax=69 qpstep=4 ip_ratio=1.40 aq=1:1.00
Output #0, flv, to 'rtmp://172.16.174.4:1935/mmddev001/slot1b_1000 pubUser=user pubPasswd=password':
  Metadata:
    starttime       : 0
    totalduration   : 115
    totaldatarate   : 783
    bytelength      : 11293827
    canseekontime   : true
    sourcedata      : B4A7DD465HH1311617348829683
    purl            : 
    pmsg            : 
    httphostheader  : v5.cache4.c.youtube.com
    encoder         : Lavf58.45.100
    Stream #0:0: Video: h264 (libx264) ([7][0][0][0] / 0x0007), yuv420p, 640x360 [SAR 1:1 DAR 16:9], q=-1--1, 950 kb/s, 23.98 fps, 1k tbn, 23.98 tbc
    Metadata:
      encoder         : Lavc58.91.100 libx264
    Side data:
      cpb: bitrate max/min/avg: 0/0/950000 buffer size: 0 vbv_delay: N/A
    Stream #0:1: Audio: aac (LC) ([10][0][0][0] / 0x000A), 44100 Hz, stereo, fltp, 48 kb/s
    Metadata:
      encoder         : Lavc58.91.100 aac
frame=   12 fps= 12 q=0.0 size=       1kB time=00:00:00.97 bitrate=   5.0kbits/s speed=0.975x    frame=   24 fps= 16 q=0.0 size=       1kB time=00:00:01.43 bitrate=   3.4kbits/s speed=0.955x    frame=   36 fps= 18 q=0.0 size=       1kB time=00:00:01.97 bitrate=   2.5kbits/s speed=0.979x    frame=   49 fps= 19 q=0.0 size=       1kB time=00:00:02.46 bitrate=   2.0kbits/s speed=0.975x    frame=   61 fps= 20 q=20.0 size=      23kB time=00:00:02.97 bitrate=  64.3kbits/s speed=0.981x    frame=   73 fps= 21 q=15.0 size=      43kB time=00:00:03.46 bitrate= 102.2kbits/s speed=0.977x    frame=   85 fps= 21 q=11.0 size=      63kB time=00:00:03.99 bitrate= 128.4kbits/s speed=0.986x    frame=   98 fps= 21 q=7.0 size=      82kB time=00:00:04.50 bitrate= 149.6kbits/s speed=0.987x    frame=  110 fps= 22 q=11.0 size=     111kB time=00:00:05.01 bitrate= 181.1kbits/s speed=0.99x    frame=  122 fps= 22 q=5.0 size=     147kB time=00:00:05.50 bitrate= 218.2kbits/s speed=0.987x    frame=  134 fps= 22 q=3.0 size=     156kB time=00:00:06.01 bitrate= 213.1kbits/s speed=0.988x    frame=  146 fps= 22 q=2.0 size=     165kB time=00:00:06.54 bitrate= 206.6kbits/s speed=0.993x    frame=  158 fps= 22 q=1.0 size=     201kB time=00:00:07.03 bitrate= 234.0kbits/s speed=0.991x    frame=  171 fps= 22 q=2.0 size=     207kB time=00:00:07.54 bitrate= 225.0kbits/s speed=0.993x    frame=  183 fps= 23 q=0.0 size=     246kB time=00:00:08.05 bitrate= 249.8kbits/s speed=0.994x    frame=  195 fps= 23 q=0.0 size=     250kB time=00:00:08.56 bitrate= 238.7kbits/s speed=0.994x    frame=  207 fps= 23 q=6.0 size=     582kB time=00:00:09.05 bitrate= 526.2kbits/s speed=0.992x    frame=  219 fps= 23 q=13.0 size=    1072kB time=00:00:09.56 bitrate= 918.4kbits/s speed=0.993x    frame=  231 fps= 23 q=17.0 size=    1321kB time=00:00:10.07 bitrate=1073.4kbits/s speed=0.994x    frame=  243 fps= 23 q=18.0 size=    1499kB time=00:00:10.61 bitrate=1157.4kbits/s speed=0.996x    frame=  256 fps= 23 q=19.0 size=    1606kB time=00:00:11.09 bitrate=1185.6kbits/s speed=0.995x    frame=  268 fps= 23 q=20.0 size=    1703kB time=00:00:11.61 bitrate=1201.7kbits/s speed=0.996x    frame=  280 fps= 23 q=21.0 size=    1793kB time=00:00:12.09 bitrate=1214.4kbits/s speed=0.994x    frame=  292 fps= 23 q=21.0 size=    1879kB time=00:00:12.60 bitrate=1221.1kbits/s speed=0.995x    frame=  304 fps= 23 q=22.0 size=    1970kB time=00:00:13.11 bitrate=1230.2kbits/s speed=0.995x    frame=  316 fps= 23 q=18.0 size=    2072kB time=00:00:13.65 bitrate=1243.1kbits/s speed=0.997x    frame=  329 fps= 23 q=24.0 size=    2253kB time=00:00:14.14 bitrate=1305.1kbits/s speed=0.996x    frame=  341 fps= 23 q=24.0 size=    2278kB time=00:00:14.65 bitrate=1273.4kbits/s speed=0.997x    frame=  353 fps= 23 q=24.0 size=    2311kB time=00:00:15.14 bitrate=1250.5kbits/s speed=0.995x    frame=  365 fps= 23 q=24.0 size=    2350kB time=00:00:15.65 bitrate=1230.0kbits/s speed=0.996x    frame=  377 fps= 23 q=24.0 size=    2383kB time=00:00:16.16 bitrate=1208.0kbits/s speed=0.996x    frame=  389 fps= 23 q=24.0 size=    2435kB time=00:00:16.67 bitrate=1196.4kbits/s speed=0.997x    frame=  402 fps= 23 q=23.0 size=    2469kB time=00:00:17.18 bitrate=1177.0kbits/s speed=0.997x    frame=  414 fps= 23 q=24.0 size=    2571kB time=00:00:17.69 bitrate=1190.4kbits/s speed=0.997x    frame=  426 fps= 23 q=25.0 size=    2674kB time=00:00:18.18 bitrate=1204.7kbits/s speed=0.996x    frame=  438 fps= 23 q=25.0 size=    2750kB time=00:00:18.69 bitrate=1205.2kbits/s speed=0.997x    frame=  450 fps= 23 q=25.0 size=    2811kB time=00:00:19.20 bitrate=1199.1kbits/s speed=0.997x    frame=  462 fps= 23 q=26.0 size=    2870kB time=00:00:19.71 bitrate=1192.5kbits/s speed=0.997x    frame=  474 fps= 23 q=27.0 size=    3013kB time=00:00:20.22 bitrate=1220.4kbits/s speed=0.997x    frame=  486 fps= 23 q=27.0 size=    3134kB time=00:00:20.71 bitrate=1239.5kbits/s speed=0.997x    frame=  498 fps= 23 q=28.0 size=    3259kB time=00:00:21.22 bitrate=1258.1kbits/s speed=0.997x    frame=  511 fps= 23 q=28.0 size=    3288kB time=00:00:21.73 bitrate=1239.4kbits/s speed=0.997x    frame=  523 fps= 23 q=27.0 size=    3318kB time=00:00:22.24 bitrate=1221.9kbits/s speed=0.998x    frame=  535 fps= 23 q=27.0 size=    3355kB time=00:00:22.73 bitrate=1209.1kbits/s speed=0.997x    frame=  547 fps= 23 q=27.0 size=    3393kB time=00:00:23.24 bitrate=1195.9kbits/s speed=0.997x    frame=  559 fps= 23 q=27.0 size=    3437kB time=00:00:23.73 bitrate=1186.3kbits/s speed=0.997x    frame=  571 fps= 23 q=27.0 size=    3484kB time=00:00:24.26 bitrate=1176.3kbits/s speed=0.998x    frame=  583 fps= 23 q=27.0 size=    3552kB time=00:00:24.75 bitrate=1175.7kbits/s speed=0.997x    frame=  595 fps= 23 q=28.0 size=    3655kB time=00:00:25.28 bitrate=1184.2kbits/s speed=0.998x    frame=  608 fps= 24 q=28.0 size=    3741kB time=00:00:25.77 bitrate=1189.0kbits/s speed=0.998x    frame=  620 fps= 24 q=28.0 size=    3803kB time=00:00:26.28 bitrate=1185.3kbits/s speed=0.998x    frame=  632 fps= 24 q=28.0 size=    3856kB time=00:00:26.77 bitrate=1179.8kbits/s speed=0.997x    frame=  644 fps= 24 q=28.0 size=    3926kB time=00:00:27.28 bitrate=1178.9kbits/s speed=0.997x    frame=  656 fps= 24 q=28.0 size=    3989kB time=00:00:27.79 bitrate=1175.7kbits/s speed=0.998x    frame=  668 fps= 24 q=29.0 size=    4059kB time=00:00:28.30 bitrate=1174.7kbits/s speed=0.998x    frame=  680 fps= 24 q=29.0 size=    4129kB time=00:00:28.81 bitrate=1173.7kbits/s speed=0.998x    frame=  693 fps= 24 q=29.0 size=    4211kB time=00:00:29.32 bitrate=1176.2kbits/s speed=0.998x    frame=  704 fps= 24 q=29.0 size=    4253kB time=00:00:29.83 bitrate=1167.8kbits/s speed=0.999x    frame=  717 fps= 24 q=29.0 size=    4333kB time=00:00:30.32 bitrate=1170.5kbits/s speed=0.998x    frame=  729 fps= 24 q=29.0 size=    4389kB time=00:00:30.83 bitrate=1166.1kbits/s speed=0.998x    frame=  741 fps= 24 q=29.0 size=    4438kB time=00:00:31.32 bitrate=1160.8kbits/s speed=0.998x    frame=  753 fps= 24 q=29.0 size=    4501kB time=00:00:31.83 bitrate=1158.3kbits/s speed=0.998x    frame=  765 fps= 24 q=29.0 size=    4565kB time=00:00:32.34 bitrate=1156.2kbits/s speed=0.998x    frame=  777 fps= 24 q=29.0 size=    4647kB time=00:00:32.85 bitrate=1158.7kbits/s speed=0.998x    frame=  790 fps= 24 q=30.0 size=    4741kB time=00:00:33.36 bitrate=1163.9kbits/s speed=0.998x    frame=  801 fps= 24 q=30.0 size=    4810kB time=00:00:33.85 bitrate=1163.9kbits/s speed=0.998x    frame=  813 fps= 24 q=30.0 size=    4907kB time=00:00:34.36 bitrate=1169.8kbits/s speed=0.998x    frame=  826 fps= 24 q=30.0 size=    4989kB time=00:00:34.87 bitrate=1171.9kbits/s speed=0.999x    frame=  838 fps= 24 q=31.0 size=    5069kB time=00:00:35.38 bitrate=1173.5kbits/s speed=0.999x    frame=  850 fps= 24 q=31.0 size=    5128kB time=00:00:35.87 bitrate=1170.9kbits/s speed=0.998x    frame=  862 fps= 24 q=31.0 size=    5165kB time=00:00:36.40 bitrate=1162.2kbits/s speed=0.999x    frame=  875 fps= 24 q=31.0 size=    5231kB time=00:00:36.92 bitrate=1160.6kbits/s speed=0.999x    frame=  887 fps= 24 q=31.0 size=    5287kB time=00:00:37.43 bitrate=1157.1kbits/s speed=0.999x    frame=  899 fps= 24 q=31.0 size=    5333kB time=00:00:37.91 bitrate=1152.1kbits/s speed=0.998x    frame=  911 fps= 24 q=31.0 size=    5380kB time=00:00:38.42 bitrate=1146.8kbits/s speed=0.998x    frame=  923 fps= 24 q=31.0 size=    5443kB time=00:00:38.91 bitrate=1145.7kbits/s speed=0.998x    frame=  935 fps= 24 q=31.0 size=    5489kB time=00:00:39.45 bitrate=1139.7kbits/s speed=0.999x    frame=  947 fps= 24 q=31.0 size=    5538kB time=00:00:39.93 bitrate=1135.8kbits/s speed=0.998x    frame=  959 fps= 24 q=30.0 size=    5584kB time=00:00:40.47 bitrate=1130.2kbits/s speed=0.999x    frame=  972 fps= 24 q=31.0 size=    5655kB time=00:00:40.96 bitrate=1130.9kbits/s speed=0.999x    frame=  983 fps= 24 q=31.0 size=    5736kB time=00:00:41.47 bitrate=1133.1kbits/s speed=0.999x    frame=  996 fps= 24 q=31.0 size=    5825kB time=00:00:41.95 bitrate=1137.3kbits/s speed=0.999x    frame= 1008 fps= 24 q=31.0 size=    5901kB time=00:00:42.47 bitrate=1138.3kbits/s speed=0.999x    frame= 1020 fps= 24 q=31.0 size=    5972kB time=00:00:42.95 bitrate=1138.9kbits/s speed=0.998x    frame= 1032 fps= 24 q=31.0 size=    6038kB time=00:00:43.46 bitrate=1138.0kbits/s speed=0.999x    frame= 1044 fps= 24 q=31.0 size=    6096kB time=00:00:43.97 bitrate=1135.5kbits/s speed=0.999x    frame= 1056 fps= 24 q=31.0 size=    6161kB time=00:00:44.46 bitrate=1135.0kbits/s speed=0.998x    frame= 1068 fps= 24 q=32.0 size=    6235kB time=00:00:45.00 bitrate=1135.0kbits/s speed=0.999x    frame= 1080 fps= 24 q=32.0 size=    6319kB time=00:00:45.48 bitrate=1138.0kbits/s speed=0.999x    frame= 1092 fps= 24 q=32.0 size=    6401kB time=00:00:46.02 bitrate=1139.4kbits/s speed=0.999x    frame= 1105 fps= 24 q=32.0 size=    6468kB time=00:00:46.50 bitrate=1139.2kbits/s speed=0.999x    frame= 1117 fps= 24 q=32.0 size=    6523kB time=00:00:47.02 bitrate=1136.5kbits/s speed=0.999x    frame= 1129 fps= 24 q=32.0 size=    6555kB time=00:00:47.53 bitrate=1129.7kbits/s speed=0.999x    frame= 1141 fps= 24 q=32.0 size=    6582kB time=00:00:48.06 bitrate=1121.7kbits/s speed=0.999x    frame= 1154 fps= 24 q=32.0 size=    6634kB time=00:00:48.55 bitrate=1119.4kbits/s speed=0.999x    frame= 1166 fps= 24 q=31.0 size=    6676kB time=00:00:49.06 bitrate=1114.7kbits/s speed=0.999x    frame= 1178 fps= 24 q=31.0 size=    6719kB time=00:00:49.55 bitrate=1110.7kbits/s speed=0.999x    frame= 1190 fps= 24 q=31.0 size=    6761kB time=00:00:50.06 bitrate=1106.3kbits/s speed=0.999x    frame= 1202 fps= 24 q=31.0 size=    6801kB time=00:00:50.55 bitrate=1102.1kbits/s speed=0.999x    frame= 1214 fps= 24 q=31.0 size=    6845kB time=00:00:51.06 bitrate=1098.3kbits/s speed=0.999x    frame= 1226 fps= 24 q=31.0 size=    6880kB time=00:00:51.57 bitrate=1092.9kbits/s speed=0.999x    frame= 1238 fps= 24 q=31.0 size=    6914kB time=00:00:52.08 bitrate=1087.4kbits/s speed=0.999x    frame= 1251 fps= 24 q=31.0 size=    6952kB time=00:00:52.59 bitrate=1082.9kbits/s speed=0.999x    frame= 1263 fps= 24 q=31.0 size=    6995kB time=00:00:53.10 bitrate=1079.1kbits/s speed=0.999x    frame= 1275 fps= 24 q=31.0 size=    7037kB time=00:00:53.59 bitrate=1075.7kbits/s speed=0.999x    frame= 1287 fps= 24 q=30.0 size=    7079kB time=00:00:54.10 bitrate=1071.8kbits/s speed=0.999x    frame= 1299 fps= 24 q=30.0 size=    7128kB time=00:00:54.63 bitrate=1068.8kbits/s speed=0.999x    frame= 1311 fps= 24 q=30.0 size=    7190kB time=00:00:55.12 bitrate=1068.5kbits/s speed=0.999x    frame= 1323 fps= 24 q=31.0 size=    7251kB time=00:00:55.63 bitrate=1067.7kbits/s speed=0.999x    frame= 1336 fps= 24 q=30.0 size=    7314kB time=00:00:56.14 bitrate=1067.1kbits/s speed=0.999x    frame= 1348 fps= 24 q=30.0 size=    7366kB time=00:00:56.65 bitrate=1065.0kbits/s speed=0.999x    frame= 1360 fps= 24 q=30.0 size=    7401kB time=00:00:57.14 bitrate=1061.0kbits/s speed=0.999x    WriteN, RTMP send error 32 (136 bytes)
WriteN, RTMP send error 32 (46 bytes)
WriteN, RTMP send error 9 (42 bytes)
av_interleaved_write_frame(): Operation not permitted
[flv @ 0x7fc84880b000] Failed to update header with correct duration.
[flv @ 0x7fc84880b000] Failed to update header with correct filesize.
Error writing trailer of rtmp://172.16.174.4:1935/mmddev001/slot1b_1000 pubUser=user pubPasswd=password: Operation not permitted
frame= 1371 fps= 24 q=30.0 Lsize=    7440kB time=00:00:57.65 bitrate=1057.1kbits/s speed=0.996x    
video:7054kB audio:340kB subtitle:0kB other streams:0kB global headers:0kB muxing overhead: 0.618583%
[libx264 @ 0x7fc848808e00] frame I:34    Avg QP:19.64  size: 18086
[libx264 @ 0x7fc848808e00] frame P:1337  Avg QP:22.12  size:  5104
[libx264 @ 0x7fc848808e00] mb I  I16..4: 30.8%  0.0% 69.2%
[libx264 @ 0x7fc848808e00] mb P  I16..4:  5.5%  0.0%  6.5%  P16..4: 45.2% 11.2%  3.0%  0.0%  0.0%    skip:28.6%
[libx264 @ 0x7fc848808e00] final ratefactor: 22.24
[libx264 @ 0x7fc848808e00] coded y,uvDC,uvAC intra: 53.1% 58.1% 16.3% inter: 19.7% 22.4% 1.3%
[libx264 @ 0x7fc848808e00] i16 v,h,dc,p: 25% 40% 10% 24%
[libx264 @ 0x7fc848808e00] i4 v,h,dc,ddl,ddr,vr,hd,vl,hu: 19% 32% 17%  5%  6%  5%  7%  4%  5%
[libx264 @ 0x7fc848808e00] i8c dc,h,v,p: 53% 30% 14%  3%
[libx264 @ 0x7fc848808e00] ref P L0: 84.8%  9.4%  5.8%
[libx264 @ 0x7fc848808e00] kb/s:1040.82
[aac @ 0x7fc84880fc00] Qavg: 4350.285
Conversion failed!
te=1050.2kbits/s speed=0.999x    frame= 1552 fps= 24 q=31.0 size=    8369kB time=00:01:05.17 bitrate=1051.9kbits/s speed=0.999x    frame= 1565 fps= 24 q=31.0 size=    8464kB time=00:01:05.68 bitrate=1055.5kbits/s speed=0.999x    frame= 1577 fps= 24 q=31.0 size=    8556kB time=00:01:06.20 bitrate=1058.8kbits/s speed=0.999x    frame= 1589 fps= 24 q=31.0 size=    8614kB time=00:01:06.68 bitrate=1058.2kbits/s speed=0.999x    frame= 1601 fps= 24 q=31.0 size=    8655kB time=00:01:07.19 bitrate=1055.2kbits/s speed=0.999x    frame= 1613 fps= 24 q=31.0 size=    8702kB time=00:01:07.71 bitrate=1052.8kbits/s speed=0.999x    frame= 1625 fps= 24 q=31.0 size=    8748kB time=00:01:08.19 bitrate=1050.8kbits/s speed=0.999x    frame= 1637 fps= 24 q=31.0 size=    8823kB time=00:01:08.70 bitrate=1051.9kbits/s speed=0.999x    frame= 1649 fps= 24 q=31.0 size=    8885kB time=00:01:09.21 bitrate=1051.5kbits/s speed=0.999x    frame= 1661 fps= 24 q=31.0 size=    8956kB time=00:01:09.75 bitrate=1051.8kbits/s speed=0.999x    frame= 1674 fps= 24 q=31.0 size=    9047kB time=00:01:10.24 bitrate=1055.1kbits/s speed=0.999x    frame= 1686 fps= 24 q=28.0 size=    9103kB time=00:01:10.75 bitrate=1054.0kbits/s speed=0.999x    frame= 1698 fps= 24 q=31.0 size=    9183kB time=00:01:11.23 bitrate=1055.9kbits/s speed=0.999x    frame= 1710 fps= 24 q=31.0 size=    9261kB time=00:01:11.74 bitrate=1057.4kbits/s speed=0.999x    frame= 1722 fps= 24 q=28.0 size=    9323kB time=00:01:12.26 bitrate=1056.9kbits/s speed=0.999x    frame= 1734 fps= 24 q=31.0 size=    9379kB time=00:01:12.79 bitrate=1055.5kbits/s speed=0.999x    frame= 1747 fps= 24 q=31.0 size=    9410kB time=00:01:13.28 bitrate=1051.9kbits/s speed=0.999x    frame= 1759 fps= 24 q=31.0 size=    9443kB time=00:01:13.79 bitrate=1048.2kbits/s speed=0.999x    frame= 1771 fps= 24 q=31.0 size=    9478kB time=00:01:14.28 bitrate=1045.3kbits/s speed=0.999x    frame= 1783 fps= 24 q=31.0 size=    9512kB time=00:01:14.79 bitrate=1041.8kbits/s speed=0.999x    frame= 1795 fps= 24 q=30.0 size=    9558kB time=00:01:15.27 bitrate=1040.1kbits/s speed=0.999x    frame= 1807 fps= 24 q=30.0 size=    9587kB time=00:01:15.81 bitrate=1036.0kbits/s speed=0.999x    frame= 1819 fps= 24 q=30.0 size=    9642kB time=00:01:16.32 bitrate=1034.9kbits/s speed=0.999x    frame= 1831 fps= 24 q=30.0 size=    9681kB time=00:01:16.81 bitrate=1032.5kbits/s speed=0.999x    frame= 1843 fps= 24 q=30.0 size=    9701kB time=00:01:17.34 bitrate=1027.5kbits/s speed=   1x    frame= 1855 fps= 24 q=30.0 size=    9730kB time=00:01:17.83 bitrate=1024.1kbits/s speed=0.999x    frame= 1867 fps= 24 q=30.0 size=    9759kB time=00:01:18.34 bitrate=1020.5kbits/s speed=0.999x    frame= 1880 fps= 24 q=30.0 size=    9816kB time=00:01:18.83 bitrate=1020.1kbits/s speed=0.999x    frame= 1892 fps= 24 q=30.0 size=    9894kB time=00:01:19.34 bitrate=1021.6kbits/s speed=0.999x    frame= 1904 fps= 24 q=30.0 size=    9959kB time=00:01:19.83 bitrate=1022.0kbits/s speed=0.999x    frame= 1916 fps= 24 q=30.0 size=   10029kB time=00:01:20.36 bitrate=1022.4kbits/s speed=0.999x    frame= 1928 fps= 24 q=30.0 size=   10084kB time=00:01:20.85 bitrate=1021.7kbits/s speed=0.999x    frame= 1940 fps= 24 q=27.0 size=   10153kB time=00:01:21.36 bitrate=1022.3kbits/s speed=0.999x    frame= 1952 fps= 24 q=30.0 size=   10225kB time=00:01:21.87 bitrate=1023.1kbits/s speed=0.999x    frame= 1964 fps= 24 q=30.0 size=   10276kB time=00:01:22.36 bitrate=1022.1kbits/s speed=0.999x    frame= 1976 fps= 24 q=30.0 size=   10320kB time=00:01:22.87 bitrate=1020.2kbits/s speed=0.999x    frame= 1988 fps= 24 q=30.0 size=   10356kB time=00:01:23.35 bitrate=1017.7kbits/s speed=0.999x    frame= 2000 fps= 24 q=27.0 size=   10394kB time=00:01:23.89 bitrate=1015.0kbits/s speed=   1x    frame= 2013 fps= 24 q=29.0 size=   10438kB time=00:01:24.38 bitrate=1013.3kbits/s speed=0.999x    frame= 2025 fps= 24 q=29.0 size=   10487kB time=00:01:24.89 bitrate=1012.0kbits/s speed=0.999x    frame= 2037 fps= 24 q=30.0 size=   10565kB time=00:01:25.38 bitrate=1013.7kbits/s speed=0.999x    frame= 2049 fps= 24 q=30.0 size=   10642kB time=00:01:25.89 bitrate=1015.0kbits/s speed=0.999x    frame= 2061 fps= 24 q=30.0 size=   10705kB time=00:01:26.40 bitrate=1014.9kbits/s speed=0.999x    frame= 2073 fps= 24 q=30.0 size=   10766kB time=00:01:26.91 bitrate=1014.8kbits/s speed=0.999x    frame= 2085 fps= 24 q=30.0 size=   10828kB time=00:01:27.40 bitrate=1014.9kbits/s speed=0.999x    frame= 2097 fps= 24 q=30.0 size=   10891kB time=00:01:27.91 bitrate=1014.9kbits/s speed=0.999x    frame= 2109 fps= 24 q=30.0 size=   10944kB time=00:01:28.42 bitrate=1013.9kbits/s speed=0.999x    frame= 2122 fps= 24 q=29.0 size=   10991kB time=00:01:28.93 bitrate=1012.5kbits/s speed=0.999x    frame= 2134 fps= 24 q=29.0 size=   11032kB time=00:01:29.42 bitrate=1010.7kbits/s speed=0.999x    frame= 2146 fps= 24 q=29.0 size=   11079kB time=00:01:29.93 bitrate=1009.2kbits/s speed=0.999x    frame= 2158 fps= 24 q=29.0 size=   11130kB time=00:01:30.44 bitrate=1008.1kbits/s speed=0.999x    WriteN, RTMP send error 32 (13 bytes)
WriteN, RTMP send error 32 (45 bytes)
WriteN, RTMP send error 9 (42 bytes)
av_interleaved_write_frame(): Operation not permitted
    Last message repeated 1 times
[flv @ 0x7f9536029a00] Failed to update header with correct duration.
[flv @ 0x7f9536029a00] Failed to update header with correct filesize.
Error writing trailer of rtmp://172.16.174.5:1935/mmddev001/slot1_1000 pubUser=user pubPasswd=password: Operation not permitted
frame= 2162 fps= 24 q=29.0 Lsize=   11140kB time=00:01:30.62 bitrate=1007.0kbits/s speed=0.998x    
video:10520kB audio:535kB subtitle:0kB other streams:0kB global headers:0kB muxing overhead: 0.775784%
[libx264 @ 0x7f9536050600] frame I:53    Avg QP:21.16  size: 15936
[libx264 @ 0x7f9536050600] frame P:2109  Avg QP:23.77  size:  4792
[libx264 @ 0x7f9536050600] mb I  I16..4: 31.0%  0.0% 69.0%
[libx264 @ 0x7f9536050600] mb P  I16..4:  6.6%  0.0%  6.0%  P16..4: 46.2% 11.6%  2.9%  0.0%  0.0%    skip:26.7%
[libx264 @ 0x7f9536050600] final ratefactor: 22.84
[libx264 @ 0x7f9536050600] coded y,uvDC,uvAC intra: 46.3% 53.4% 11.8% inter: 20.1% 21.3% 0.9%
[libx264 @ 0x7f9536050600] i16 v,h,dc,p: 27% 39% 11% 23%
[libx264 @ 0x7f9536050600] i4 v,h,dc,ddl,ddr,vr,hd,vl,hu: 18% 30% 19%  5%  6%  5%  7%  4%  5%
[libx264 @ 0x7f9536050600] i8c dc,h,v,p: 56% 28% 13%  3%
[libx264 @ 0x7f9536050600] ref P L0: 85.5%  9.1%  5.4%
[libx264 @ 0x7f9536050600] kb/s:971.53
[aac @ 0x7f9536051e00] Qavg: 2816.000
Conversion failed!
